<?xml version="1.0" encoding="utf-8"?>
<!-- Generator: Adobe Illustrator 18.1.0, SVG Export Plug-In . SVG Version: 6.00 Build 0)  -->
<!DOCTYPE svg PUBLIC "-//W3C//DTD SVG 1.1//EN" "http://www.w3.org/Graphics/SVG/1.1/DTD/svg11.dtd">
<svg version="1.1" id="Layer_1" xmlns="http://www.w3.org/2000/svg" xmlns:xlink="http://www.w3.org/1999/xlink" x="0px" y="0px"
	 viewBox="0 0 40 40" enable-background="new 0 0 40 40" xml:space="preserve">
<g>
	<path d="M21.052,19.532l4.4,4.396l-1.467,1.463l-4.986-4.979v-8.031h2.053V19.532z M20,30.55c1.446,0,2.812-0.272,4.1-0.82
		c1.287-0.547,2.411-1.298,3.369-2.257c0.959-0.959,1.71-2.082,2.261-3.37c0.544-1.291,0.816-2.658,0.816-4.103
		s-0.272-2.812-0.816-4.103c-0.551-1.288-1.302-2.411-2.261-3.37c-0.958-0.955-2.082-1.71-3.369-2.257
		c-1.288-0.547-2.654-0.819-4.1-0.819c-1.445,0-2.812,0.272-4.107,0.819c-1.287,0.547-2.411,1.302-3.369,2.257
		c-0.959,0.959-1.71,2.082-2.254,3.37C9.719,17.188,9.448,18.555,9.448,20s0.271,2.812,0.822,4.103
		c0.544,1.288,1.295,2.411,2.254,3.37c0.958,0.959,2.082,1.71,3.369,2.257C17.188,30.278,18.555,30.55,20,30.55 M20,6.521
		c1.874,0,3.62,0.351,5.244,1.055c1.624,0.701,3.048,1.671,4.279,2.901c1.231,1.231,2.196,2.658,2.897,4.279
		c0.709,1.62,1.059,3.37,1.059,5.244c0,1.875-0.35,3.624-1.059,5.244c-0.701,1.625-1.666,3.048-2.897,4.279
		c-1.231,1.23-2.655,2.2-4.279,2.901c-1.624,0.705-3.37,1.055-5.244,1.055c-1.875,0-3.627-0.35-5.244-1.055
		c-1.624-0.701-3.049-1.671-4.278-2.901c-1.231-1.231-2.204-2.654-2.905-4.279C6.871,23.624,6.521,21.875,6.521,20
		c0-1.874,0.35-3.624,1.052-5.244c0.701-1.621,1.674-3.048,2.905-4.279c1.229-1.23,2.654-2.2,4.278-2.901
		C16.373,6.872,18.125,6.521,20,6.521"/>
</g>
</svg>
