<?xml version="1.0" encoding="utf-8"?>
<!-- Generator: Adobe Illustrator 18.1.0, SVG Export Plug-In . SVG Version: 6.00 Build 0)  -->
<!DOCTYPE svg PUBLIC "-//W3C//DTD SVG 1.1//EN" "http://www.w3.org/Graphics/SVG/1.1/DTD/svg11.dtd">
<svg version="1.1" id="Layer_1" xmlns="http://www.w3.org/2000/svg" xmlns:xlink="http://www.w3.org/1999/xlink" x="0px" y="0px"
	 viewBox="0 0 40 40" enable-background="new 0 0 40 40" xml:space="preserve">
<path d="M13.965,14.116h-3.721v12.059h3.721c4.393,0,6.564-2.257,6.564-6.047C20.529,16.372,18.203,14.116,13.965,14.116z
	 M14.086,24.435h-1.792v-8.579h1.792c2.791,0,4.341,1.654,4.341,4.272C18.427,22.798,16.963,24.435,14.086,24.435z M30.205,15.941
	v-1.825h-8.407v12.059h2.067v-5.082h5.479v-1.757h-5.479v-3.395H30.205z M20,3.421c-9.142,0-16.58,7.438-16.58,16.579
	S10.858,36.579,20,36.579c9.142,0,16.579-7.438,16.579-16.579S29.142,3.421,20,3.421z M20,32.89c-7.107,0-12.889-5.782-12.889-12.89
	S12.893,7.11,20,7.11c7.107,0,12.889,5.782,12.889,12.89S27.107,32.89,20,32.89z"/>
</svg>
