<?xml version="1.0" encoding="utf-8"?>
<!-- Generator: Adobe Illustrator 16.0.0, SVG Export Plug-In . SVG Version: 6.00 Build 0)  -->
<!DOCTYPE svg PUBLIC "-//W3C//DTD SVG 1.1//EN" "http://www.w3.org/Graphics/SVG/1.1/DTD/svg11.dtd">
<svg version="1.1" id="Layer_1" xmlns="http://www.w3.org/2000/svg" xmlns:xlink="http://www.w3.org/1999/xlink" x="0px" y="0px"
	 width="40px" height="40px" viewBox="-40 376 40 40" enable-background="new -40 376 40 40" xml:space="preserve">
<path fill="#D7DF3A" d="M-27.279,388.901h-4.489v14.548h4.489c5.299,0,7.918-2.723,7.918-7.295
	C-19.361,391.623-22.167,388.901-27.279,388.901z M-27.133,401.35h-2.162V391h2.162c3.367,0,5.236,1.996,5.236,5.154
	C-21.897,399.375-23.663,401.35-27.133,401.35z M-7.689,391.103v-2.202h-10.142v14.548h2.494v-6.131h6.609v-2.12h-6.609v-4.096
	H-7.689L-7.689,391.103z M-20,376c-11.028,0-20,8.973-20,20s8.973,20,20,20c11.028,0,20-8.973,20-20S-8.971,376-20,376z M-20,411.55
	c-8.573,0-15.548-6.976-15.548-15.55c0-8.575,6.975-15.55,15.548-15.55S-4.451,387.425-4.451,396
	C-4.451,404.574-11.426,411.55-20,411.55z"/>
</svg>
