<?xml version="1.0" encoding="utf-8"?>
<!-- Generator: Adobe Illustrator 16.0.0, SVG Export Plug-In . SVG Version: 6.00 Build 0)  -->
<!DOCTYPE svg PUBLIC "-//W3C//DTD SVG 1.1//EN" "http://www.w3.org/Graphics/SVG/1.1/DTD/svg11.dtd">
<svg version="1.1" id="Layer_1" xmlns="http://www.w3.org/2000/svg" xmlns:xlink="http://www.w3.org/1999/xlink" x="0px" y="0px"
	 width="40px" height="40px" viewBox="-20 -20 40 40" enable-background="new -20 -20 40 40" xml:space="preserve">
<path fill="#D7DF3A" d="M-6.783,1.381h3.658V4.83c-0.748,0.437-1.829,0.707-2.91,0.707c-3.117,0-4.966-2.14-4.966-5.486
	c0-3.076,1.975-5.237,4.966-5.237c1.413,0,2.64,0.457,3.804,1.246l1.288-1.767c-1.475-1.018-3.159-1.641-5.153-1.641
	c-4.509,0-7.461,3.117-7.461,7.398c0,4.572,2.91,7.648,7.461,7.648c2.016,0,3.866-0.582,5.279-1.58v-6.588h-5.964v1.851H-6.783z
	 M0-20c-11.028,0-20,8.973-20,20.001C-20,11.03-11.027,20,0,20c11.028,0,20-8.972,20-19.999C20-11.028,11.029-20,0-20z M0,15.55
	c-8.573,0-15.548-6.975-15.548-15.548C-15.547-8.572-8.573-15.55,0-15.55S15.549-8.574,15.549,0.001
	C15.549,8.574,8.574,15.55,0,15.55z M12.371-4.896v-2.202H2.23V7.449h2.493V1.318h6.609v-2.119H4.723v-4.096H12.371L12.371-4.896z"
	/>
</svg>
