<?xml version="1.0" encoding="utf-8"?>
<!-- Generator: Adobe Illustrator 18.1.0, SVG Export Plug-In . SVG Version: 6.00 Build 0)  -->
<!DOCTYPE svg PUBLIC "-//W3C//DTD SVG 1.1//EN" "http://www.w3.org/Graphics/SVG/1.1/DTD/svg11.dtd">
<svg version="1.1" id="Layer_1" xmlns="http://www.w3.org/2000/svg" xmlns:xlink="http://www.w3.org/1999/xlink" x="0px" y="0px"
	 viewBox="0 0 40 40" enable-background="new 0 0 40 40" xml:space="preserve">
<g>
	<path d="M27.546,25.692c1.691,0.609,3.028,1.205,4.021,1.777c0.988,0.577,1.481,1.08,1.481,1.511v2.857h-12.67H7.707V28.98
		c0-0.431,0.487-0.934,1.481-1.511c0.987-0.572,2.323-1.168,4.015-1.777c1.692-0.612,2.844-1.231,3.449-1.862
		c0.612-0.629,0.922-1.482,0.922-2.561c0-0.323-0.053-0.566-0.165-0.727c-0.105-0.162-0.23-0.332-0.375-0.514
		c-0.145-0.178-0.309-0.411-0.487-0.701c-0.178-0.286-0.323-0.734-0.428-1.346c-0.039-0.253-0.118-0.414-0.244-0.487
		c-0.131-0.072-0.256-0.142-0.381-0.214c-0.125-0.072-0.25-0.217-0.376-0.431c-0.125-0.217-0.204-0.612-0.243-1.188
		c0-0.395,0.072-0.701,0.217-0.915c0.072-0.109,0.158-0.181,0.27-0.217c-0.039-0.25-0.072-0.52-0.112-0.81
		c-0.033-0.249-0.072-0.5-0.105-0.754c-0.033-0.25-0.072-0.519-0.105-0.809c-0.04-0.322,0.006-0.744,0.131-1.267
		c0.125-0.52,0.388-1.024,0.783-1.511c0.395-0.484,0.942-0.905,1.646-1.267c0.698-0.358,1.626-0.536,2.778-0.536
		c1.145,0,2.08,0.178,2.804,0.536c0.717,0.362,1.27,0.783,1.671,1.267c0.395,0.487,0.645,0.991,0.751,1.511
		c0.112,0.523,0.144,0.945,0.112,1.267c-0.04,0.29-0.066,0.559-0.086,0.809c-0.013,0.254-0.039,0.505-0.078,0.754
		c-0.033,0.29-0.093,0.56-0.159,0.81c0.066,0.036,0.138,0.108,0.211,0.217c0.072,0.073,0.138,0.187,0.191,0.349
		c0.052,0.161,0.079,0.352,0.079,0.566c-0.033,0.576-0.112,0.971-0.244,1.188c-0.125,0.214-0.25,0.359-0.375,0.431
		c-0.125,0.072-0.25,0.142-0.375,0.214c-0.125,0.073-0.211,0.234-0.244,0.487c-0.105,0.612-0.243,1.06-0.408,1.346
		c-0.158,0.29-0.322,0.523-0.48,0.701c-0.165,0.182-0.297,0.352-0.409,0.514c-0.105,0.161-0.157,0.404-0.157,0.727
		c0,1.079,0.309,1.932,0.941,2.561C24.755,24.461,25.893,25.08,27.546,25.692"/>
</g>
</svg>
