<?xml version="1.0" encoding="utf-8"?>
<!-- Generator: Adobe Illustrator 16.0.0, SVG Export Plug-In . SVG Version: 6.00 Build 0)  -->
<!DOCTYPE svg PUBLIC "-//W3C//DTD SVG 1.1//EN" "http://www.w3.org/Graphics/SVG/1.1/DTD/svg11.dtd">
<svg version="1.1" id="Layer_1" xmlns="http://www.w3.org/2000/svg" xmlns:xlink="http://www.w3.org/1999/xlink" x="0px" y="0px"
	 width="40px" height="40px" viewBox="-20 -20 40 40" enable-background="new -20 -20 40 40" xml:space="preserve">
<path fill="#D7DF3A" d="M0-20c-11.025,0-20,8.975-20,20s8.975,20,20,20s20-8.975,20-20S11.025-20,0-20z M0,15.549
	c-8.571,0-15.549-6.972-15.549-15.549S-8.571-15.549,0-15.549c8.57,0,15.549,6.978,15.549,15.549C15.549,8.57,8.57,15.549,0,15.549z
	 M12.37-4.897v-2.202H2.231V7.449h2.491V1.321h6.61v-2.117h-6.61v-4.095L12.37-4.897L12.37-4.897z"/>
<text transform="matrix(1.0424 0 0 1 -12.5693 7.6836)" fill="#D7DF3A" font-family="'Lato'" font-size="21.3672">S</text>
</svg>
