<?xml version="1.0" encoding="utf-8"?>
<!-- Generator: Adobe Illustrator 16.0.0, SVG Export Plug-In . SVG Version: 6.00 Build 0)  -->
<!DOCTYPE svg PUBLIC "-//W3C//DTD SVG 1.1//EN" "http://www.w3.org/Graphics/SVG/1.1/DTD/svg11.dtd">
<svg version="1.1" id="Layer_1" xmlns="http://www.w3.org/2000/svg" xmlns:xlink="http://www.w3.org/1999/xlink" x="0px" y="0px"
	 width="40px" height="40px" viewBox="-20 -20 40 40" enable-background="new -20 -20 40 40" xml:space="preserve">
<g>
	<g>
		<path fill="#D7DF3A" d="M-11.063-8.885C-6.259-2.62-3.64,4.354-2.337,11.794c0.982,0.235,1.525,0.242,2.537,0.055
			c0.06-0.085,0.176-0.175,0.188-0.275c0.228-1.874,0.77-3.677,1.24-5.498c0.579-2.241,1.28-4.425,2.475-6.442
			c0.39-0.657,0.875-1.037,1.637-1.159C6.699-1.679,7.632-1.88,8.514-2.37c1.277-0.709,2.195-1.629,2.416-3.087
			c0.152-1.014,0.249-2.034,0.379-3.133C9.032-8.952,6.833-8.789,4.698-7.794C2.868-6.94,1.703-5.655,1.285-3.665
			C1.109-2.82,1.383-2.285,1.902-1.689c1.29-1.049,2.059-2.504,3.439-3.34C4.587-3.985,3.766-3.003,2.984-1.993
			C2.51-1.38,1.99-0.77,1.681-0.076C0.818,1.865,0.057,3.848-0.75,5.812c-0.076,0.182-0.194,0.347-0.316,0.56
			c-0.408-1.339-0.752-2.603-1.178-3.84c-0.743-2.155-1.618-4.255-2.737-6.26c-1.036-1.856-2.303-3.495-4.11-4.684
			C-9.606-8.751-10.164-9.036-11.063-8.885"/>
	</g>
	<g>
		<path fill="#D7DF3A" d="M0,20c-11.028,0-20-8.972-20-20s8.973-20,20-20c11.028,0,20,8.972,20,20S11.029,20,0,20z M0-15.548
			c-8.573,0-15.548,6.975-15.548,15.549S-8.573,15.548,0,15.548S15.549,8.573,15.549,0S8.574-15.548,0-15.548z"/>
	</g>
</g>
</svg>
