<?xml version="1.0" encoding="utf-8"?>
<!-- Generator: Adobe Illustrator 18.1.0, SVG Export Plug-In . SVG Version: 6.00 Build 0)  -->
<!DOCTYPE svg PUBLIC "-//W3C//DTD SVG 1.1//EN" "http://www.w3.org/Graphics/SVG/1.1/DTD/svg11.dtd">
<svg version="1.1" id="Layer_1" xmlns="http://www.w3.org/2000/svg" xmlns:xlink="http://www.w3.org/1999/xlink" x="0px" y="0px"
	 viewBox="0 0 40 40" enable-background="new 0 0 40 40" xml:space="preserve">
<g>
	<g>
		<path d="M10.828,12.634c3.983,5.194,6.154,10.976,7.234,17.143c0.814,0.195,1.264,0.201,2.103,0.046
			c0.05-0.071,0.146-0.145,0.156-0.228c0.189-1.553,0.638-3.048,1.028-4.558c0.48-1.858,1.061-3.668,2.052-5.34
			c0.323-0.545,0.725-0.86,1.357-0.961c0.795-0.128,1.568-0.295,2.299-0.701c1.059-0.588,1.82-1.35,2.003-2.559
			c0.126-0.84,0.206-1.686,0.314-2.597c-1.887-0.3-3.71-0.165-5.48,0.66c-1.517,0.708-2.483,1.773-2.829,3.423
			c-0.146,0.7,0.081,1.144,0.511,1.638c1.069-0.87,1.707-2.076,2.851-2.769c-0.625,0.865-1.306,1.679-1.954,2.517
			c-0.393,0.508-0.824,1.014-1.08,1.589c-0.715,1.609-1.346,3.253-2.015,4.881c-0.063,0.151-0.161,0.288-0.262,0.464
			c-0.338-1.11-0.624-2.158-0.977-3.183c-0.616-1.787-1.341-3.528-2.269-5.19c-0.859-1.539-1.909-2.897-3.407-3.883
			C12.036,12.745,11.574,12.509,10.828,12.634"/>
	</g>
	<g>
		<path d="M20,36.58c-9.142,0-16.58-7.438-16.58-16.58S10.858,3.42,20,3.42c9.142,0,16.579,7.438,16.579,16.58
			S29.142,36.58,20,36.58z M20,7.111c-7.107,0-12.889,5.782-12.889,12.89S12.893,32.889,20,32.889
			c7.107,0,12.889-5.782,12.889-12.889S27.107,7.111,20,7.111z"/>
	</g>
</g>
</svg>
