<?xml version="1.0" encoding="utf-8"?>
<!-- Generator: Adobe Illustrator 18.1.1, SVG Export Plug-In . SVG Version: 6.00 Build 0)  -->
<svg version="1.1" id="Layer_1" xmlns="http://www.w3.org/2000/svg" xmlns:xlink="http://www.w3.org/1999/xlink" x="0px" y="0px"
	 viewBox="0 0 10 6" enable-background="new 0 0 10 6" xml:space="preserve">
<g>
	<defs>
		<rect id="SVGID_1_" width="10" height="6"/>
	</defs>
	<clipPath id="SVGID_2_">
		<use xlink:href="#SVGID_1_"  overflow="visible"/>
	</clipPath>
	<path clip-path="url(#SVGID_2_)" fill="#ADADAD" d="M10,1c0-0.3-0.1-0.5-0.3-0.7C9.5,0.1,9.3,0,9.1,0C8.8,0,8.6,0.1,8.4,0.3L5,3.6
		L1.6,0.3C1.4,0.1,1.2,0,0.9,0C0.7,0,0.5,0.1,0.3,0.3C0.1,0.5,0,0.7,0,1c0,0.3,0.1,0.5,0.3,0.7c0.1,0.1,0.4,0.4,0.8,0.8
		c0.4,0.4,0.9,0.9,1.4,1.3C3,4.4,3.6,5,4.3,5.7C4.5,5.9,4.7,6,5,6c0.3,0,0.5-0.1,0.7-0.3C6.4,5,7,4.4,7.6,3.9
		c0.5-0.5,0.9-0.9,1.4-1.3c0.4-0.4,0.7-0.7,0.8-0.8C9.9,1.6,10,1.3,10,1"/>
</g>
</svg>
