<?xml version="1.0" encoding="utf-8"?>
<!-- Generator: Adobe Illustrator 18.1.1, SVG Export Plug-In . SVG Version: 6.00 Build 0)  -->
<svg version="1.1" id="Layer_1" xmlns="http://www.w3.org/2000/svg" xmlns:xlink="http://www.w3.org/1999/xlink" x="0px" y="0px"
	 viewBox="0 0 372 57" enable-background="new 0 0 372 57" xml:space="preserve">
<g>
	<path fill="#FFFFFF" d="M295.9,0 M364.1,54 M364.6,52.5c0.3,0.1,0.3,0.4,0.4,1.2c0.3,1.3,1.5,2.2,2.9,2.2c1.1,0,2.2-0.6,2.7-1.6
		l0.1-0.4c0.1-0.2,0.1-0.4,0.2-0.6c0-0.1,0-0.1,0-0.2l0-53.3h-74v0C327.9,2.3,354.9,23.3,364.6,52.5z"/>
</g>
<g>
	<rect fill="#D6D6D6" width="296" height="1"/>
</g>
<g>
	<path fill="#D6D6D6" d="M368,57c-1.8,0-3.5-1.2-3.9-3l0,0c-9.3-29.6-36.5-50.9-67.7-53L296,1V0h76l0,0.5v52.7c0,0.1,0,0.2,0,0.3
		l0,0l0,0.2c-0.1,0.2-0.1,0.4-0.2,0.6l-0.1,0.5C370.9,56.2,369.5,57,368,57z M364.7,52.5c0.3,0.1,0.3,0.4,0.4,1.2
		c0.3,1.3,1.5,2.2,2.9,2.2c1.1,0,2.2-0.6,2.7-1.6l0.1-0.4c0.1-0.2,0.1-0.4,0.2-0.6c0-0.1,0-0.1,0-0.2L371,0h-74v0
		C327.9,2.3,354.9,23.3,364.7,52.5z"/>
</g>
</svg>
