<?xml version="1.0" encoding="utf-8"?>
<!-- Generator: Adobe Illustrator 18.1.1, SVG Export Plug-In . SVG Version: 6.00 Build 0)  -->
<svg version="1.1" id="Layer_1" xmlns="http://www.w3.org/2000/svg" xmlns:xlink="http://www.w3.org/1999/xlink" x="0px" y="0px"
	 viewBox="0 0 14 20" enable-background="new 0 0 14 20" xml:space="preserve">
<g>
	<g>
		<g>
			<path fill="#D6D6D6" d="M14,20h-0.9c-3.1,0-5.4-2-5.5-2.1l-6.3-5.5C0.4,11.7,0,10.9,0,10.1c0-1.4,1.1-2.4,1.2-2.4l6.3-5.5
				C9.9,0,12.9,0,13.1,0H14v1.1h-0.9c0,0-2.8,0-4.9,1.8L1.8,8.4c0,0-0.8,0.7-0.8,1.6c0,0.5,0.3,1,0.8,1.5l6.3,5.5
				c0,0,2.2,1.8,4.9,1.8H14V20z"/>
		</g>
	</g>
	<g>
		<g>
			<path fill="#D6D6D6" d="M5.3,12c-1.1,0-2-0.9-2-2s0.9-2,2-2s2,0.9,2,2S6.4,12,5.3,12z M5.3,9c-0.6,0-1,0.4-1,1s0.4,1,1,1
				s1-0.4,1-1S5.8,9,5.3,9z"/>
		</g>
	</g>
</g>
</svg>
