<?xml version="1.0" encoding="utf-8"?>
<!-- Generator: Adobe Illustrator 18.1.1, SVG Export Plug-In . SVG Version: 6.00 Build 0)  -->
<svg version="1.1" id="Layer_1" xmlns="http://www.w3.org/2000/svg" xmlns:xlink="http://www.w3.org/1999/xlink" x="0px" y="0px"
	 viewBox="0 0 1280 800" enable-background="new 0 0 1280 800" xml:space="preserve">
<g>
	<g>
		<defs>
			<rect id="SVGID_1_" y="16" width="1280" height="768"/>
		</defs>
		<clipPath id="SVGID_2_">
			<use xlink:href="#SVGID_1_"  overflow="visible"/>
		</clipPath>
		<path clip-path="url(#SVGID_2_)" fill="#D7DF3A" d="M1280,144c0-38.4-12.8-64-38.4-89.6S1190.4,16,1164.8,16
			c-38.4,0-64,12.8-89.6,38.4L640,476.8L204.8,54.4C179.2,28.8,153.6,16,115.2,16C89.6,16,64,28.8,38.4,54.4S0,105.6,0,144
			s12.8,64,38.4,89.6c12.8,12.8,51.2,51.2,102.4,102.4S256,451.2,320,502.4c64,76.8,140.8,153.6,230.4,243.2
			C576,771.2,601.6,784,640,784s64-12.8,89.6-38.4C819.2,656,896,579.2,972.8,515.2c64-64,115.2-115.2,179.2-166.4
			c51.2-51.2,89.6-89.6,102.4-102.4C1267.2,220.8,1280,182.4,1280,144"/>
	</g>
</g>
</svg>
