<?xml version="1.0" encoding="utf-8"?>
<!-- Generator: Adobe Illustrator 18.1.1, SVG Export Plug-In . SVG Version: 6.00 Build 0)  -->
<svg version="1.1" id="Layer_1" xmlns="http://www.w3.org/2000/svg" xmlns:xlink="http://www.w3.org/1999/xlink" x="0px" y="0px"
	 viewBox="0 0 633 23" enable-background="new 0 0 633 23" xml:space="preserve">
<g>
	<path fill="#FFFFFF" d="M0,0v21.5c0,0.5,0.8,0.9,1.3,0.9c0.5,0.1,1.1,0.3,1.3-0.1C2.6,22.2,6,11,29.4,11h33.9h-0.1h560
		c0,0,9.2-0.4,9.2-10.6"/>
	<path fill="#D6D6D6" d="M2.1,23c-0.2,0-0.4,0-0.6-0.1C0.9,22.9,0,22.3,0,21.5V0h1v21.5c0,0.1,0.3,0.4,0.6,0.4c0.2,0,0.5,0,0.6,0
		C2.2,21.8,5.4,10,29.4,10h593.8c0.3,0,8.9,0.2,8.9-10h1c0,11.2-9.8,11-9.9,11H29.4C6.5,11,3.2,22.1,3.1,22.2C3,22.8,2.5,23,2.1,23z
		"/>
</g>
</svg>
