<?xml version="1.0" encoding="utf-8"?>
<!-- Generator: Adobe Illustrator 18.1.0, SVG Export Plug-In . SVG Version: 6.00 Build 0)  -->
<!DOCTYPE svg PUBLIC "-//W3C//DTD SVG 1.1//EN" "http://www.w3.org/Graphics/SVG/1.1/DTD/svg11.dtd">
<svg version="1.1" id="Layer_1" xmlns="http://www.w3.org/2000/svg" xmlns:xlink="http://www.w3.org/1999/xlink" x="0px" y="0px"
	 viewBox="0 0 15 15" enable-background="new 0 0 15 15" xml:space="preserve">
<g>
	<defs>
		<rect id="SVGID_1_" x="1.907" y="1.908" width="11.186" height="11.184"/>
	</defs>
	<clipPath id="SVGID_2_">
		<use xlink:href="#SVGID_1_"  overflow="visible"/>
	</clipPath>
	<path clip-path="url(#SVGID_2_)" fill="#0099EE" d="M7.402,10.905c0.244,0,0.442-0.078,0.597-0.232
		c0.154-0.154,0.231-0.344,0.231-0.571c0.015-0.243-0.053-0.441-0.207-0.595C7.868,9.353,7.669,9.275,7.426,9.275H7.402
		c-0.225,0-0.415,0.073-0.57,0.219c-0.154,0.146-0.24,0.332-0.255,0.559c0,0.243,0.077,0.442,0.229,0.596
		c0.154,0.155,0.344,0.239,0.573,0.256H7.402z M9.421,6.917c0.21-0.276,0.317-0.592,0.317-0.948c0-0.616-0.22-1.086-0.659-1.41
		C8.658,4.251,8.115,4.096,7.453,4.096c-0.52,0-0.941,0.106-1.265,0.316C5.637,4.754,5.346,5.344,5.313,6.187v0.049h1.336V6.187
		c0-0.211,0.065-0.429,0.195-0.656C6.957,5.337,7.177,5.239,7.5,5.239c0.324,0,0.534,0.082,0.633,0.243
		c0.13,0.162,0.192,0.342,0.192,0.536c0,0.146-0.062,0.307-0.192,0.485c-0.066,0.098-0.146,0.18-0.244,0.244
		C7.874,6.763,7.744,6.852,7.5,7.014c-0.243,0.163-0.439,0.332-0.584,0.51c-0.081,0.115-0.134,0.244-0.158,0.39
		C6.735,8.06,6.714,8.247,6.699,8.472v0.099h1.312v-0.05c0-0.112,0.003-0.185,0.012-0.218c0.009-0.032,0.021-0.072,0.035-0.121
		C8.109,8.02,8.222,7.873,8.399,7.744l0.342-0.22c0.16-0.129,0.3-0.242,0.412-0.34C9.266,7.087,9.355,6.999,9.421,6.917
		 M7.426,1.909c0.781-0.016,1.508,0.117,2.19,0.401c0.68,0.283,1.277,0.672,1.787,1.166c0.511,0.496,0.914,1.079,1.214,1.751
		c0.3,0.672,0.46,1.398,0.475,2.176c0.015,0.779-0.119,1.507-0.401,2.188c-0.285,0.682-0.676,1.281-1.178,1.799
		c-0.505,0.519-1.092,0.929-1.763,1.229c-0.674,0.299-1.398,0.458-2.175,0.473c-0.781,0-1.508-0.141-2.191-0.424
		c-0.68-0.284-1.276-0.674-1.786-1.168c-0.511-0.494-0.915-1.078-1.214-1.75c-0.303-0.673-0.46-1.399-0.475-2.177
		c-0.018-0.777,0.115-1.508,0.4-2.187c0.282-0.681,0.677-1.278,1.179-1.788C3.989,3.087,4.58,2.679,5.25,2.37
		C5.924,2.063,6.649,1.909,7.426,1.909"/>
</g>
</svg>
