<?xml version="1.0" encoding="utf-8"?>
<!-- Generator: Adobe Illustrator 16.0.0, SVG Export Plug-In . SVG Version: 6.00 Build 0)  -->
<!DOCTYPE svg PUBLIC "-//W3C//DTD SVG 1.1//EN" "http://www.w3.org/Graphics/SVG/1.1/DTD/svg11.dtd">
<svg version="1.1" id="Layer_1" xmlns="http://www.w3.org/2000/svg" xmlns:xlink="http://www.w3.org/1999/xlink" x="0px" y="0px"
	 width="40px" height="40px" viewBox="-20 -20 40 40" enable-background="new -20 -20 40 40" xml:space="preserve">
<g>
	<path fill="#D7DF3A" d="M1.561-0.694L8.09,5.828L5.913,7.999l-7.398-7.388v-11.917h3.046V-0.694z M0,15.654
		c2.146,0,4.172-0.403,6.083-1.216c1.91-0.812,3.578-1.926,4.999-3.349c1.423-1.423,2.537-3.089,3.355-5
		c0.807-1.916,1.21-3.944,1.21-6.088s-0.403-4.172-1.21-6.088c-0.818-1.911-1.932-3.578-3.355-5
		c-1.421-1.417-3.089-2.537-4.999-3.349C4.172-15.249,2.146-15.652,0-15.652c-2.144,0-4.172,0.403-6.094,1.215
		c-1.91,0.812-3.578,1.932-4.999,3.349c-1.423,1.423-2.537,3.089-3.345,5C-15.255-4.172-15.657-2.144-15.657,0
		s0.402,4.172,1.219,6.088c0.808,1.911,1.922,3.578,3.345,5c1.421,1.423,3.089,2.537,4.999,3.349
		C-4.172,15.25-2.144,15.654,0,15.654 M0-20c2.781,0,5.371,0.521,7.781,1.565c2.409,1.04,4.522,2.479,6.349,4.304
		c1.826,1.827,3.258,3.944,4.298,6.349C19.481-5.377,20-2.781,20,0c0,2.782-0.519,5.377-1.571,7.781
		c-1.04,2.411-2.472,4.522-4.298,6.349c-1.827,1.825-3.94,3.264-6.349,4.304C5.371,19.481,2.781,20,0,20
		c-2.782,0-5.382-0.519-7.781-1.565c-2.41-1.04-4.524-2.479-6.347-4.304c-1.827-1.827-3.271-3.938-4.311-6.349
		C-19.48,5.377-20,2.782-20,0c0-2.781,0.52-5.377,1.561-7.781c1.04-2.405,2.484-4.522,4.311-6.349
		c1.823-1.825,3.938-3.264,6.347-4.304C-5.382-19.479-2.782-20,0-20"/>
</g>
</svg>
