<?xml version="1.0" encoding="utf-8"?>
<!-- Generator: Adobe Illustrator 18.1.0, SVG Export Plug-In . SVG Version: 6.00 Build 0)  -->
<!DOCTYPE svg PUBLIC "-//W3C//DTD SVG 1.1//EN" "http://www.w3.org/Graphics/SVG/1.1/DTD/svg11.dtd">
<svg version="1.1" id="Layer_1" xmlns="http://www.w3.org/2000/svg" xmlns:xlink="http://www.w3.org/1999/xlink" x="0px" y="0px"
	 viewBox="0 0 40 40" enable-background="new 0 0 40 40" xml:space="preserve">
<path d="M14.377,21.145h3.032v2.859c-0.62,0.362-1.516,0.586-2.412,0.586c-2.584,0-4.117-1.774-4.117-4.548
	c0-2.55,1.637-4.341,4.117-4.341c1.171,0,2.188,0.379,3.153,1.033l1.068-1.465c-1.223-0.844-2.619-1.36-4.272-1.36
	c-3.738,0-6.185,2.584-6.185,6.133c0,3.79,2.412,6.34,6.185,6.34c1.671,0,3.205-0.482,4.376-1.31v-5.461h-4.944V21.145z M20,3.421
	c-9.142,0-16.58,7.438-16.58,16.58c0,9.142,7.438,16.578,16.58,16.578c9.142,0,16.579-7.437,16.579-16.578
	C36.579,10.858,29.142,3.421,20,3.421z M20,32.89c-7.107,0-12.889-5.782-12.889-12.889C7.111,12.894,12.893,7.11,20,7.11
	c7.107,0,12.889,5.783,12.889,12.891C32.889,27.107,27.107,32.89,20,32.89z M30.255,15.941v-1.825h-8.407v12.059h2.067v-5.082h5.479
	v-1.757h-5.479v-3.395H30.255z"/>
</svg>
