<?xml version="1.0" encoding="utf-8"?>
<!-- Generator: Adobe Illustrator 18.1.1, SVG Export Plug-In . SVG Version: 6.00 Build 0)  -->
<svg version="1.1" id="Layer_1" xmlns="http://www.w3.org/2000/svg" xmlns:xlink="http://www.w3.org/1999/xlink" x="0px" y="0px"
	 viewBox="0 0 115 45" enable-background="new 0 0 115 45" xml:space="preserve">
<g>
	<path fill="#F3F6F8" d="M115,45C90.2,43.2,69.5,25.5,62.4,2.1c0,0,0,0,0,0c0,0.2,0.1,0.4,0.1,0.6c0,0.2,0,0-0.1-0.6
		C62.2,0.9,61.1,0,59.8,0c-1.1,0-2,0.6-2.4,1.5c-0.1,0.3-0.2,0.6-0.2,0.9c0,0.4,0,0.5,0,0.3c0-0.1,0-0.2,0-0.3
		C49.6,27.1,26.9,45,0,45H115z"/>
</g>
</svg>
