<?xml version="1.0" encoding="utf-8"?>
<!-- Generator: Adobe Illustrator 16.0.0, SVG Export Plug-In . SVG Version: 6.00 Build 0)  -->
<!DOCTYPE svg PUBLIC "-//W3C//DTD SVG 1.1//EN" "http://www.w3.org/Graphics/SVG/1.1/DTD/svg11.dtd">
<svg version="1.1" id="Layer_1" xmlns="http://www.w3.org/2000/svg" xmlns:xlink="http://www.w3.org/1999/xlink" x="0px" y="0px"
	 width="40px" height="40px" viewBox="-40 -20 40 40" enable-background="new -40 -20 40 40" xml:space="preserve">
<g>
	<path fill="#D7DF3A" d="M-8.685,9.869c2.669,1.004,4.779,1.986,6.347,2.929C-0.778,13.75,0,14.579,0,15.29V20h-19.999H-40v-4.71
		c0-0.71,0.769-1.54,2.338-2.491c1.558-0.943,3.667-1.925,6.337-2.929c2.671-1.009,4.489-2.03,5.444-3.07
		c0.966-1.037,1.456-2.443,1.456-4.222c0-0.532-0.083-0.933-0.26-1.198c-0.166-0.267-0.363-0.547-0.592-0.848
		c-0.229-0.293-0.487-0.678-0.769-1.156c-0.281-0.471-0.51-1.21-0.676-2.219c-0.062-0.417-0.186-0.683-0.385-0.803
		C-27.314-3.766-27.511-3.881-27.708-4s-0.395-0.358-0.593-0.711c-0.197-0.357-0.322-1.009-0.384-1.958
		c0-0.651,0.114-1.156,0.343-1.508c0.113-0.18,0.249-0.298,0.426-0.358c-0.062-0.412-0.113-0.857-0.177-1.335
		c-0.052-0.411-0.113-0.824-0.166-1.243c-0.052-0.412-0.114-0.855-0.166-1.333c-0.063-0.531,0.01-1.227,0.207-2.089
		c0.197-0.857,0.612-1.688,1.236-2.491c0.624-0.798,1.487-1.492,2.598-2.089c1.102-0.59,2.566-0.884,4.385-0.884
		c1.807,0,3.283,0.293,4.426,0.884c1.132,0.597,2.005,1.291,2.638,2.089c0.624,0.803,1.018,1.634,1.186,2.491
		c0.177,0.862,0.227,1.558,0.177,2.089c-0.063,0.478-0.104,0.921-0.136,1.333c-0.021,0.419-0.062,0.833-0.123,1.243
		c-0.052,0.478-0.147,0.923-0.251,1.335c0.104,0.06,0.218,0.178,0.333,0.358c0.113,0.12,0.218,0.308,0.301,0.575
		c0.082,0.266,0.125,0.581,0.125,0.933c-0.052,0.95-0.177,1.601-0.385,1.958C-11.906-4.357-12.104-4.118-12.301-4
		c-0.197,0.119-0.395,0.234-0.592,0.353c-0.197,0.121-0.333,0.386-0.385,0.803c-0.166,1.009-0.383,1.748-0.644,2.219
		c-0.25,0.478-0.508,0.862-0.758,1.156c-0.261,0.3-0.469,0.581-0.646,0.848c-0.166,0.265-0.248,0.666-0.248,1.198
		c0,1.779,0.488,3.186,1.485,4.222C-13.09,7.839-11.294,8.86-8.685,9.869"/>
</g>
</svg>
