<?xml version="1.0" encoding="utf-8"?>
<!-- Generator: Adobe Illustrator 18.1.1, SVG Export Plug-In . SVG Version: 6.00 Build 0)  -->
<svg version="1.1" id="Layer_1" xmlns="http://www.w3.org/2000/svg" xmlns:xlink="http://www.w3.org/1999/xlink" x="0px" y="0px"
	 viewBox="0 0 800 800" enable-background="new 0 0 800 800" xml:space="preserve">
<path d="M400,68.4C217.2,68.4,68.4,217.2,68.4,400S217.2,731.6,400,731.6S731.6,582.8,731.6,400C731.6,217.2,582.8,68.4,400,68.4z
	 M400,657.8c-142.1,0-257.8-115.6-257.8-257.8S257.9,142.2,400,142.2S657.8,257.9,657.8,400C657.8,542.1,542.1,657.8,400,657.8z
	 M605.1,318.8v-36.5H437v241.2h41.3V421.9h109.6v-35.1H478.3v-67.9L605.1,318.8L605.1,318.8z"/>
<text transform="matrix(1.0424 0 0 1 191.6025 527.3955)" font-family="'AlrightSans-Medium'" font-size="354.2684">S</text>
</svg>
