<?xml version="1.0" encoding="utf-8"?>
<!-- Generator: Adobe Illustrator 18.1.1, SVG Export Plug-In . SVG Version: 6.00 Build 0)  -->
<svg version="1.1" id="Layer_1" xmlns="http://www.w3.org/2000/svg" xmlns:xlink="http://www.w3.org/1999/xlink" x="0px" y="0px"
	 viewBox="0 0 180 180" enable-background="new 0 0 180 180" xml:space="preserve">
<circle fill="none" stroke="#FFFFFF" stroke-width="1.06" cx="90.3" cy="92.7" r="17.1"/>
<g>
	<path fill="#C0D929" d="M90,180c49.7,0,90-40.3,90-90c0-49.7-40.3-90-90-90S0,40.3,0,90C0,139.7,40.3,180,90,180"/>
	<path fill="#002110" d="M133.1,113.2c-2-1.3-1.2,1.3-6.1,1.3c-4.9,0-7.3-2.4-7.3-7.6c0-8.2,8.5-28.6,8.5-37.8
		c0-12.4-7.1-19.5-21.5-19.5c-9.1,0-18.5,5.5-22.5,10.4c0,0,1.2-4,1.6-5.5c0.4-1.6-0.5-3.2-2.7-3.2H69.1c-3,0-3.8,1.5-4.3,3.2
		c-0.2,0.7-5.3,19.5-10.1,37.5c-3.3,12.4-8.9,32.9-9,33.2c-0.5,1.9,0.1,3.5,2.4,3.5h14.5c2.5,0,3.5-1,4-3c0.5-2,11.4-42.2,11.4-42.2
		c2.9-10.8,10-18,19.9-18c4.7,0,8.8,3,8.4,8.7c-0.5,6.3-8.6,29-8.6,38.9c0,7.5,3,17.3,18,17.3c10.3,0,14.3-4.4,16.7-8.2
		C134.8,118.3,135.2,114.5,133.1,113.2"/>
</g>
<rect x="61" y="65.3" fill="none" width="58.7" height="48.7"/>
<rect x="61" y="65.3" fill="none" width="58.7" height="48.7"/>
</svg>
